<mxfile host="Electron" modified="2023-11-17T00:26:02.141Z" agent="Mozilla/5.0 (X11; Linux x86_64) AppleWebKit/537.36 (KHTML, like Gecko) draw.io/21.1.2 Chrome/106.0.5249.199 Electron/21.4.3 Safari/537.36" etag="HavBAyPDpR2-MWRnS-Af" version="21.1.2" type="device">
  <diagram name="Page-1" id="29IWFSNCQPdZ3JvsVGwR">
    <mxGraphModel dx="817" dy="336" grid="1" gridSize="10" guides="1" tooltips="1" connect="1" arrows="1" fold="1" page="1" pageScale="1" pageWidth="850" pageHeight="1100" math="1" shadow="0">
      <root>
        <mxCell id="0" />
        <mxCell id="1" parent="0" />
        <mxCell id="Q82u07dq0p0EdmUNRcqx-2" value="" style="endArrow=none;html=1;rounded=0;strokeWidth=2;" edge="1" parent="1">
          <mxGeometry width="50" height="50" relative="1" as="geometry">
            <mxPoint x="160" y="360" as="sourcePoint" />
            <mxPoint x="240" y="360" as="targetPoint" />
          </mxGeometry>
        </mxCell>
        <mxCell id="Q82u07dq0p0EdmUNRcqx-3" value="" style="endArrow=none;html=1;rounded=0;strokeWidth=2;" edge="1" parent="1">
          <mxGeometry width="50" height="50" relative="1" as="geometry">
            <mxPoint x="160" y="389.86" as="sourcePoint" />
            <mxPoint x="240" y="389.86" as="targetPoint" />
          </mxGeometry>
        </mxCell>
        <mxCell id="Q82u07dq0p0EdmUNRcqx-4" value="" style="endArrow=none;html=1;rounded=0;strokeWidth=2;" edge="1" parent="1">
          <mxGeometry width="50" height="50" relative="1" as="geometry">
            <mxPoint x="160" y="440" as="sourcePoint" />
            <mxPoint x="240" y="440" as="targetPoint" />
          </mxGeometry>
        </mxCell>
        <mxCell id="Q82u07dq0p0EdmUNRcqx-5" value="$$\vdots$$" style="text;html=1;align=center;verticalAlign=middle;resizable=0;points=[];autosize=1;strokeColor=none;fillColor=none;" vertex="1" parent="1">
          <mxGeometry x="160" y="450" width="80" height="30" as="geometry" />
        </mxCell>
        <mxCell id="Q82u07dq0p0EdmUNRcqx-6" value="$$\vdots$$" style="text;html=1;align=center;verticalAlign=middle;resizable=0;points=[];autosize=1;strokeColor=none;fillColor=none;" vertex="1" parent="1">
          <mxGeometry x="160" y="320" width="80" height="30" as="geometry" />
        </mxCell>
        <mxCell id="Q82u07dq0p0EdmUNRcqx-7" value="$$\ket{\epsilon_1}$$" style="text;html=1;align=center;verticalAlign=middle;resizable=0;points=[];autosize=1;strokeColor=none;fillColor=none;" vertex="1" parent="1">
          <mxGeometry x="200" y="345" width="130" height="30" as="geometry" />
        </mxCell>
        <mxCell id="Q82u07dq0p0EdmUNRcqx-8" value="$$\ket{\epsilon_2}$$" style="text;html=1;align=center;verticalAlign=middle;resizable=0;points=[];autosize=1;strokeColor=none;fillColor=none;" vertex="1" parent="1">
          <mxGeometry x="200" y="375" width="130" height="30" as="geometry" />
        </mxCell>
        <mxCell id="Q82u07dq0p0EdmUNRcqx-9" value="$$\ket{\epsilon_3}$$" style="text;html=1;align=center;verticalAlign=middle;resizable=0;points=[];autosize=1;strokeColor=none;fillColor=none;" vertex="1" parent="1">
          <mxGeometry x="195" y="420" width="130" height="30" as="geometry" />
        </mxCell>
        <mxCell id="Q82u07dq0p0EdmUNRcqx-13" value="" style="group" vertex="1" connectable="0" parent="1">
          <mxGeometry x="210" y="390" width="5" height="50" as="geometry" />
        </mxCell>
        <mxCell id="Q82u07dq0p0EdmUNRcqx-10" value="" style="endArrow=classic;html=1;rounded=0;strokeColor=#FF0000;" edge="1" parent="Q82u07dq0p0EdmUNRcqx-13">
          <mxGeometry width="50" height="50" relative="1" as="geometry">
            <mxPoint y="50" as="sourcePoint" />
            <mxPoint as="targetPoint" />
          </mxGeometry>
        </mxCell>
        <mxCell id="Q82u07dq0p0EdmUNRcqx-12" value="" style="endArrow=classic;html=1;rounded=0;strokeColor=#FF0000;" edge="1" parent="Q82u07dq0p0EdmUNRcqx-13">
          <mxGeometry width="50" height="50" relative="1" as="geometry">
            <mxPoint x="5" as="sourcePoint" />
            <mxPoint x="5" y="50" as="targetPoint" />
          </mxGeometry>
        </mxCell>
        <mxCell id="Q82u07dq0p0EdmUNRcqx-14" value="" style="group" vertex="1" connectable="0" parent="1">
          <mxGeometry x="210" y="360" width="5" height="30" as="geometry" />
        </mxCell>
        <mxCell id="Q82u07dq0p0EdmUNRcqx-15" value="" style="endArrow=classic;html=1;rounded=0;strokeColor=#FFCCE6;" edge="1" parent="Q82u07dq0p0EdmUNRcqx-14">
          <mxGeometry width="50" height="50" relative="1" as="geometry">
            <mxPoint y="30" as="sourcePoint" />
            <mxPoint as="targetPoint" />
          </mxGeometry>
        </mxCell>
        <mxCell id="Q82u07dq0p0EdmUNRcqx-16" value="" style="endArrow=classic;html=1;rounded=0;strokeColor=#FFCCE6;" edge="1" parent="Q82u07dq0p0EdmUNRcqx-14">
          <mxGeometry width="50" height="50" relative="1" as="geometry">
            <mxPoint x="5" as="sourcePoint" />
            <mxPoint x="5" y="30" as="targetPoint" />
          </mxGeometry>
        </mxCell>
        <mxCell id="Q82u07dq0p0EdmUNRcqx-17" value="" style="group" vertex="1" connectable="0" parent="1">
          <mxGeometry x="160" y="360" width="5" height="80" as="geometry" />
        </mxCell>
        <mxCell id="Q82u07dq0p0EdmUNRcqx-18" value="" style="endArrow=classic;html=1;rounded=0;strokeColor=#00FF00;" edge="1" parent="Q82u07dq0p0EdmUNRcqx-17">
          <mxGeometry width="50" height="50" relative="1" as="geometry">
            <mxPoint y="80" as="sourcePoint" />
            <mxPoint as="targetPoint" />
          </mxGeometry>
        </mxCell>
        <mxCell id="Q82u07dq0p0EdmUNRcqx-19" value="" style="endArrow=classic;html=1;rounded=0;strokeColor=#00FF00;" edge="1" parent="Q82u07dq0p0EdmUNRcqx-17">
          <mxGeometry width="50" height="50" relative="1" as="geometry">
            <mxPoint x="5" as="sourcePoint" />
            <mxPoint x="5" y="80" as="targetPoint" />
          </mxGeometry>
        </mxCell>
        <mxCell id="Q82u07dq0p0EdmUNRcqx-20" value="$$\omega_{13}$$" style="text;html=1;align=center;verticalAlign=middle;resizable=0;points=[];autosize=1;strokeColor=none;fillColor=none;fontColor=#00FF00;" vertex="1" parent="1">
          <mxGeometry x="80" y="400" width="120" height="30" as="geometry" />
        </mxCell>
        <mxCell id="Q82u07dq0p0EdmUNRcqx-23" value="$$\omega_{31}$$" style="text;html=1;align=center;verticalAlign=middle;resizable=0;points=[];autosize=1;strokeColor=none;fillColor=none;fontColor=#00FF00;" vertex="1" parent="1">
          <mxGeometry x="80" y="385" width="120" height="30" as="geometry" />
        </mxCell>
        <mxCell id="Q82u07dq0p0EdmUNRcqx-25" value="$$\omega_{12}$$" style="text;html=1;align=center;verticalAlign=middle;resizable=0;points=[];autosize=1;strokeColor=none;fillColor=none;fontColor=#FFCCE6;" vertex="1" parent="1">
          <mxGeometry x="170" y="350" width="120" height="30" as="geometry" />
        </mxCell>
        <mxCell id="Q82u07dq0p0EdmUNRcqx-26" value="$$\omega_{21}$$" style="text;html=1;align=center;verticalAlign=middle;resizable=0;points=[];autosize=1;strokeColor=none;fillColor=none;fontColor=#FFCCE6;" vertex="1" parent="1">
          <mxGeometry x="170" y="360" width="120" height="30" as="geometry" />
        </mxCell>
        <mxCell id="Q82u07dq0p0EdmUNRcqx-28" value="$$\omega_{23}$$" style="text;html=1;align=center;verticalAlign=middle;resizable=0;points=[];autosize=1;strokeColor=none;fillColor=none;fontColor=#FF0000;" vertex="1" parent="1">
          <mxGeometry x="170" y="390" width="120" height="30" as="geometry" />
        </mxCell>
        <mxCell id="Q82u07dq0p0EdmUNRcqx-29" value="$$\omega_{32}$$" style="text;html=1;align=center;verticalAlign=middle;resizable=0;points=[];autosize=1;strokeColor=none;fillColor=none;fontColor=#FF0000;" vertex="1" parent="1">
          <mxGeometry x="170" y="405" width="120" height="30" as="geometry" />
        </mxCell>
      </root>
    </mxGraphModel>
  </diagram>
</mxfile>
